<?xml version="1.0" encoding="UTF-8"?>
<svg width="24px" height="24px" viewBox="0 0 24 24" version="1.1" xmlns="http://www.w3.org/2000/svg" xmlns:xlink="http://www.w3.org/1999/xlink">
    <!-- Generator: Sketch 55.2 (78181) - https://sketchapp.com -->
    <title>icon-notifications-notification new-24</title>
    <desc>Created with Sketch.</desc>
    <g id="icon-notifications-notification-new-24" stroke="none" stroke-width="1" fill="none" fill-rule="evenodd">
        <g id="icon-notifications-notification-24_icon-04" fill="#252B39">
            <path d="M17.988024,15.8499385 L20,17.9163592 L20,18.9249692 L4,18.9249692 L4,17.9163592 L6.01197605,15.8499385 L6.01197605,10.7576876 C6.01197605,9.15046347 6.4031897,7.76466347 7.18562874,6.600246 C7.98403593,5.40302804 9.09380527,4.62402804 10.5149701,4.26322263 L10.5149701,3.5498155 C10.5149701,3.1234091 10.6586812,2.7585091 10.9461078,2.45510455 C11.2335344,2.1517 11.5848283,2 12,2 C12.4151717,2 12.7704576,2.1517 13.0658683,2.45510455 C13.3612789,2.7585091 13.508982,3.1234091 13.508982,3.5498155 L13.508982,4.26322263 C14.9141787,4.62402804 16.0159641,5.41122804 16.8143713,6.62484625 C17.5968103,7.78926371 17.988024,9.16686371 17.988024,10.7576876 L17.988024,15.8499385 Z M12,22 C11.441115,22 10.9660698,21.8032 10.5748503,21.4095941 C10.1836308,21.0159882 9.98802395,20.5403882 9.98802395,19.9827798 L14.011976,19.9827798 C14.011976,20.5403882 13.8123772,21.0159882 13.4131737,21.4095941 C13.0139701,21.8032 12.5429169,22 12,22 Z" id="icon-color"></path>
        </g>
        <circle id="status" fill="#FF6200" cx="21" cy="3" r="3"></circle>
    </g>
</svg>