<?xml version="1.0" encoding="UTF-8" standalone="no"?>
<!DOCTYPE svg PUBLIC "-//W3C//DTD SVG 1.1//EN" "http://www.w3.org/Graphics/SVG/1.1/DTD/svg11.dtd">
<svg version="1.1" xmlns="http://www.w3.org/2000/svg" xmlns:xlink="http://www.w3.org/1999/xlink" preserveAspectRatio="xMidYMid meet" viewBox="0 0 640 640" width="640" height="640"><defs><path d="M5.21 6.79L5.31 6.81L5.41 6.84L5.51 6.87L5.61 6.9L5.7 6.95L5.79 6.99L5.88 7.05L5.96 7.11L6.04 7.18L6.12 7.25L8.12 9.25L8.15 9.28L8.18 9.3L8.21 9.32L8.24 9.34L8.28 9.36L8.31 9.37L8.35 9.39L8.39 9.4L8.42 9.41L8.46 9.41L8.5 9.42L8.54 9.42L18.09 9.42L18.3 9.43L18.51 9.48L18.71 9.54L18.89 9.64L19.06 9.75L19.21 9.88L19.35 10.03L19.46 10.2L19.55 10.38L19.62 10.58L19.66 10.79L19.68 11L19.68 19.43L19.66 19.64L19.62 19.85L19.55 20.04L19.46 20.22L19.34 20.39L19.21 20.54L19.05 20.67L18.89 20.79L18.7 20.88L18.51 20.94L18.3 20.99L18.09 21L1.58 21L1.37 20.99L1.16 20.94L0.96 20.88L0.78 20.78L0.61 20.67L0.46 20.54L0.33 20.39L0.22 20.22L0.12 20.04L0.06 19.84L0.01 19.63L0 19.42L0 8.36L0 8.26L0.01 8.15L0.03 8.05L0.05 7.95L0.08 7.85L0.12 7.76L0.16 7.66L0.21 7.57L0.27 7.48L0.33 7.4L0.39 7.32L0.46 7.24L0.54 7.17L0.62 7.11L0.7 7.05L0.79 6.99L0.88 6.94L0.98 6.9L1.07 6.86L1.17 6.83L1.27 6.81L1.37 6.79L1.48 6.78L1.58 6.78L5 6.78L5.1 6.78L5.21 6.79ZM1.48 7.83L1.39 7.88L1.31 7.93L1.23 7.98L1.17 8.03L1.12 8.08L1.08 8.14L1.04 8.19L1.02 8.25L1 8.3L1 8.36L1 19.42L1.01 19.51L1.02 19.59L1.05 19.66L1.09 19.74L1.14 19.8L1.2 19.86L1.26 19.91L1.34 19.95L1.41 19.98L1.49 19.99L1.58 20L18.09 20L18.18 19.99L18.26 19.98L18.34 19.95L18.41 19.91L18.47 19.86L18.53 19.8L18.58 19.74L18.62 19.67L18.65 19.59L18.67 19.51L18.68 19.42L18.68 11L18.67 10.91L18.65 10.83L18.62 10.75L18.58 10.68L18.53 10.62L18.47 10.56L18.41 10.51L18.34 10.47L18.26 10.44L18.18 10.43L18.09 10.42L8.54 10.42L8.43 10.42L8.31 10.4L8.2 10.38L8.09 10.35L7.99 10.32L7.88 10.28L7.78 10.22L7.68 10.17L7.59 10.1L7.5 10.03L7.42 9.95L5.42 7.95L5.39 7.92L5.36 7.89L5.32 7.87L5.28 7.85L5.25 7.83L5.21 7.82L5.17 7.8L5.13 7.79L5.08 7.79L5.04 7.78L5 7.78L1.58 7.78L1.48 7.83Z" id="f5CTqnenW"></path></defs><g><g><g><use xlink:href="#f5CTqnenW" opacity="1" fill="#bdbfc3" fill-opacity="1"></use><g><use xlink:href="#f5CTqnenW" opacity="1" fill-opacity="0" stroke="#000000" stroke-width="1" stroke-opacity="0"></use></g></g></g></g></svg>