<?xml version="1.0" encoding="UTF-8"?>
<svg width="23px" height="14px" viewBox="0 0 23 14" version="1.1" xmlns="http://www.w3.org/2000/svg" xmlns:xlink="http://www.w3.org/1999/xlink">
    <!-- Generator: sketchtool 54.1 (76490) - https://sketchapp.com -->
    <title>26096BCD-7144-4EE8-B171-1C79A93E1D49</title>
    <desc>Created with sketchtool.</desc>
    <g id="Аккаунт" stroke="none" stroke-width="1" fill="none" fill-rule="evenodd">
        <g id="Аккаунт_Интеграции2" transform="translate(-290.000000, -356.000000)" fill-rule="nonzero">
            <g id="integrations" transform="translate(270.000000, 294.000000)">
                <g id="integration" transform="translate(0.000000, 33.000000)">
                    <g id="Components/toggle/off" transform="translate(20.000000, 29.000000)">
                        <g id="Components/toggle/on">
                            <path d="M7,0 L16,0 C19.8659932,0 23,3.13400675 23,7 C23,10.8659932 19.8659932,14 16,14 L7,14 C3.13400675,14 0,10.8659932 0,7 C0,3.13400675 3.13400675,0 7,0 Z" id="Rectangle" fill="#FEBD2B"></path>
                            <path d="M16,13 C19.3137085,13 22,10.3137085 22,7 C22,3.6862915 19.3137085,1 16,1 C12.6862915,1 10,3.6862915 10,7 C10,10.3137085 12.6862915,13 16,13 Z" id="Oval-2" fill="#FFFFFF"></path>
                        </g>
                    </g>
                </g>
            </g>
        </g>
    </g>
</svg>