<?xml version="1.0" encoding="UTF-8"?>
<svg width="23px" height="14px" viewBox="0 0 23 14" version="1.1" xmlns="http://www.w3.org/2000/svg" xmlns:xlink="http://www.w3.org/1999/xlink">
    <!-- Generator: sketchtool 52.5 (67469) - http://www.bohemiancoding.com/sketch -->
    <title>4B4D8CF8-05FD-46B0-BEBF-EBD07DAA277B</title>
    <desc>Created with sketchtool.</desc>
    <g id="Реестр-факта" stroke="none" stroke-width="1" fill="none" fill-rule="evenodd">
        <g id="Реестр-фактических-значений" transform="translate(-2544.000000, -202.000000)" fill="#8A8F9A" fill-rule="nonzero">
            <g id="comments" transform="translate(2544.000000, 198.000000)">
                <g id="Components/toggle/off" transform="translate(0.000000, 4.000000)">
                    <g>
                        <path d="M7,14 C3.13400675,14 0,10.8659932 0,7 C0,3.13400675 3.13400675,0 7,0 C10.8659932,0 14,3.13400675 14,7 C14,10.8659932 10.8659932,14 7,14 Z M7,13 C10.3137085,13 13,10.3137085 13,7 C13,3.6862915 10.3137085,1 7,1 C3.6862915,1 1,3.6862915 1,7 C1,10.3137085 3.6862915,13 7,13 Z" id="Oval-2"></path>
                        <path d="M7,1 C3.6862915,1 1,3.6862915 1,7 C1,10.3137085 3.6862915,13 7,13 L16,13 C19.3137085,13 22,10.3137085 22,7 C22,3.6862915 19.3137085,1 16,1 L7,1 Z M7,0 L16,0 C19.8659932,0 23,3.13400675 23,7 C23,10.8659932 19.8659932,14 16,14 L7,14 C3.13400675,14 0,10.8659932 0,7 C0,3.13400675 3.13400675,0 7,0 Z" id="Rectangle"></path>
                    </g>
                </g>
            </g>
        </g>
    </g>
</svg>