<?xml version="1.0" encoding="UTF-8"?>
<svg width="20px" height="20px" viewBox="0 0 20 20" version="1.1" xmlns="http://www.w3.org/2000/svg" xmlns:xlink="http://www.w3.org/1999/xlink">
    <!-- Generator: Sketch 55.2 (78181) - https://sketchapp.com -->
    <title>icon-navigation-settings-20_icon-accent-02</title>
    <desc>Created with Sketch.</desc>
    <g id="icon-navigation-settings-20_icon-accent-02" stroke="none" stroke-width="1" fill="none" fill-rule="evenodd">
        <path d="M11.1,20 L8.9,20 C8.10859889,20 7.46549584,19.361382 7.46,18.57 L7.46,17.37 C7.15743726,17.2698824 6.8632002,17.1461691 6.58,17 L5.74,17.85 C5.47475311,18.1158854 5.11555343,18.2667492 4.74,18.27 L4.74,18.27 C4.36422423,18.2678326 4.00462897,18.1168026 3.74,17.85 L2.15,16.29 C1.61152894,15.732065 1.61152894,14.847935 2.15,14.29 L3,13.42 C2.85948171,13.1320516 2.73919062,12.8346652 2.64,12.53 L1.43,12.53 C1.05074042,12.53 0.687014324,12.3793397 0.418837303,12.1111627 C0.150660282,11.8429857 0,11.4792596 0,11.1 L0,8.9 C0,8.10859889 0.638617974,7.46549584 1.43,7.46 L2.63,7.46 C2.73423863,7.15899897 2.85782976,6.86505251 3,6.58 L2.16,5.73 C1.89036019,5.46729459 1.73880754,5.10645496 1.74,4.73 C1.74216738,4.35422423 1.89319739,3.99462897 2.16,3.73 L3.71,2.15 C4.26793501,1.61152894 5.15206499,1.61152894 5.71,2.15 L6.58,3 C6.86530169,2.86123487 7.15924323,2.74098606 7.46,2.64 L7.46,1.43 C7.46549584,0.638617974 8.10859889,0 8.9,0 L11.1,0 C11.8914011,0 12.5345042,0.638617974 12.54,1.43 L12.54,2.63 C12.8407568,2.73098606 13.1346983,2.85123487 13.42,2.99 L14.26,2.15 C14.817935,1.61152894 15.702065,1.61152894 16.26,2.15 L17.82,3.71 C18.3584711,4.26793501 18.3584711,5.15206499 17.82,5.71 L17,6.58 C17.1387651,6.86530169 17.2590139,7.15924323 17.36,7.46 L18.56,7.46 C18.9419117,7.46 19.3081814,7.61171385 19.5782338,7.88176624 C19.8482861,8.15181862 20,8.51808825 20,8.9 L20,11.1 C20,11.8897672 19.3597672,12.53 18.57,12.53 L17.37,12.53 C17.2708094,12.8346652 17.1505183,13.1320516 17.01,13.42 L17.85,14.26 C18.3884711,14.817935 18.3884711,15.702065 17.85,16.26 L16.29,17.82 C15.7260633,18.3433991 14.8539367,18.3433991 14.29,17.82 L13.42,17 C13.1367998,17.1461691 12.8425627,17.2698824 12.54,17.37 L12.54,18.57 C12.5345042,19.361382 11.8914011,20 11.1,20 Z M6.4,15.77 L6.73,15.95 C7.16261866,16.193304 7.62247417,16.3846308 8.1,16.52 L8.47,16.63 L8.47,18.57 C8.47,18.6840431 8.51530344,18.7934153 8.59594408,18.8740559 C8.67658473,18.9546966 8.78595691,19 8.9,19 L11.1,19 C11.3374824,19 11.53,18.8074824 11.53,18.57 L11.53,16.63 L11.9,16.52 C12.3753391,16.4005474 12.8351151,16.2260339 13.27,16 L13.6,15.82 L15,17.14 C15.0807162,17.2212198 15.1904935,17.2668911 15.305,17.2668911 C15.4195065,17.2668911 15.5292838,17.2212198 15.61,17.14 L17.17,15.58 C17.2512198,15.4992838 17.2968911,15.3895065 17.2968911,15.275 C17.2968911,15.1604935 17.2512198,15.0507162 17.17,14.97 L15.77,13.6 L15.95,13.27 C16.1974788,12.8394271 16.3890246,12.3790451 16.52,11.9 L16.63,11.53 L18.57,11.53 C18.8074824,11.53 19,11.3374824 19,11.1 L19,8.9 C19,8.66084698 18.8090913,8.46543529 18.57,8.46 L16.63,8.46 L16.52,8.1 C16.4048746,7.62331205 16.2301663,7.16302283 16,6.73 L15.82,6.4 L17.14,5 C17.2226539,4.9179447 17.2694029,4.80646622 17.27,4.69 C17.2678582,4.57678369 17.2211441,4.468982 17.14,4.39 L15.58,2.86 C15.4992838,2.77878025 15.3895065,2.73310889 15.275,2.73310889 C15.1604935,2.73310889 15.0507162,2.77878025 14.97,2.86 L13.6,4.23 L13.27,4 C12.8333828,3.76500218 12.3744525,3.5740604 11.9,3.43 L11.53,3.33 L11.53,1.43 C11.53,1.19251756 11.3374824,1 11.1,1 L8.9,1 C8.66251756,1 8.47,1.19251756 8.47,1.43 L8.47,3.37 L8.1,3.47 C7.62368456,3.61317138 7.16432517,3.8076447 6.73,4.05 L6.4,4.23 L4.99999999,2.86 C4.91928384,2.77878025 4.80950654,2.73310889 4.695,2.73310889 C4.58049346,2.73310889 4.47071616,2.77878025 4.39,2.86 L2.86,4.42 C2.77885591,4.498982 2.73214184,4.60678369 2.73,4.72 C2.73809504,4.82597066 2.78427262,4.92543007 2.86,5 L4.23,6.4 L4.05,6.73 C3.80669599,7.16261866 3.61536924,7.62247417 3.48,8.1 L3.37,8.46 L1.43,8.46 C1.19090875,8.46543529 0.999999985,8.66084698 0.999999985,8.9 L0.999999985,11.1 C0.999999985,11.3374824 1.19251756,11.53 1.43,11.53 L3.37,11.53 L3.48,11.89 C3.61352968,12.3713458 3.80492619,12.8347268 4.05,13.27 L4.23,13.6 L2.86,15 C2.77878025,15.0807162 2.73310889,15.1904935 2.73310889,15.305 C2.73310889,15.4195065 2.77878025,15.5292838 2.86,15.61 L4.42,17.17 C4.5923127,17.3288399 4.8576873,17.3288399 5.03,17.17 L6.4,15.77 Z M10,13.05 C8.34314575,13.05 7,11.7068542 7,10.05 C7,8.39314575 8.34314575,7.05 10,7.05 C11.6568542,7.05 13,8.39314575 13,10.05 C13,10.8456495 12.6839295,11.6087112 12.1213203,12.1713203 C11.5587112,12.7339295 10.7956495,13.05 10,13.05 L10,13.05 Z M10,8.05 C8.8954305,8.05 8,8.9454305 8,10.05 C8,11.1545695 8.8954305,12.05 10,12.05 C11.1045695,12.05 12,11.1545695 12,10.05 C12.0134803,9.51095772 11.8087328,8.98930956 11.432189,8.6033522 C11.0556452,8.21739483 10.5392108,7.99983147 10,7.9999999 L10,8.05 Z" id="icon-color" fill="#3887FF"></path>
    </g>
</svg>