<?xml version="1.0" encoding="UTF-8"?>
<svg width="20px" height="20px" viewBox="0 0 20 20" version="1.1" xmlns="http://www.w3.org/2000/svg" xmlns:xlink="http://www.w3.org/1999/xlink">
    <!-- Generator: Sketch 55.2 (78181) - https://sketchapp.com -->
    <title>icon-status-info-20_icon-02</title>
    <desc>Created with Sketch.</desc>
    <g id="icon-status-info-20_icon-02" stroke="none" stroke-width="1" fill="none" fill-rule="evenodd">
        <path d="M10,20 C4.4771525,20 0,15.5228475 0,10 C0,4.4771525 4.4771525,0 10,0 C15.5228475,0 20,4.4771525 20,10 C20,15.5228475 15.5228475,20 10,20 Z M10,18.75 C14.8324916,18.75 18.75,14.8324916 18.75,10 C18.75,5.16750844 14.8324916,1.25 10,1.25 C5.16750844,1.25 1.25,5.16750844 1.25,10 C1.25,14.8324916 5.16750844,18.75 10,18.75 Z M10,4.44444444 C11.8330538,4.44444444 13.3333333,5.94472667 13.3333333,7.77777778 C13.3333333,8.85943778 12.8344684,9.70983333 12.2361111,10.3402778 C11.7228116,10.8811222 11.1523891,11.2889444 10.6666667,11.6597222 L10.6666667,12.2222222 C10.6700669,12.4626462 10.5437498,12.6862765 10.3360848,12.8074807 C10.1284197,12.9286849 9.87158027,12.9286849 9.66391523,12.8074807 C9.4562502,12.6862765 9.32993314,12.4626462 9.33333333,12.2222222 L9.33333333,11.3333333 C9.33321644,11.1307582 9.42520422,10.939117 9.58333333,10.8125 C10.1723393,10.3413 10.8066907,9.90533333 11.2638889,9.42361111 C11.7210871,8.94188444 12,8.46960889 12,7.77777778 C12,6.66531333 11.1124662,5.77777778 10,5.77777778 C8.88753378,5.77777778 8,6.66531333 8,7.77777778 C8.00340019,8.01820172 7.87708314,8.24183202 7.6694181,8.36303626 C7.46175306,8.4842405 7.2049136,8.4842405 6.99724857,8.36303626 C6.78958353,8.24183202 6.66326647,8.01820172 6.66666667,7.77777778 C6.66666667,5.94472667 8.16694622,4.44444444 10,4.44444444 Z M10,13.7777778 C10.49092,13.7777778 10.8888889,14.1757333 10.8888889,14.6666667 C10.8888889,15.1575778 10.49092,15.5555556 10,15.5555556 C9.50908,15.5555556 9.11111111,15.1575778 9.11111111,14.6666667 C9.11111111,14.1757333 9.50908,13.7777778 10,13.7777778 Z" id="icon-color" fill="#FFFFFF"></path>
    </g>
</svg>