<?xml version="1.0" encoding="UTF-8"?>
<svg width="16px" height="16px" viewBox="0 0 16 16" version="1.1" xmlns="http://www.w3.org/2000/svg" xmlns:xlink="http://www.w3.org/1999/xlink">
    <!-- Generator: Sketch 55.2 (78181) - https://sketchapp.com -->
    <title>icon-status-arrow-down-16_icon_accent-02</title>
    <desc>Created with Sketch.</desc>
    <g id="icon-status-arrow-down-16_icon_accent-02" stroke="none" stroke-width="1" fill="none" fill-rule="evenodd">
        <path d="M13.8858653,6.71612383 L13.8263852,2.94169529 C13.8241505,2.78532175 13.7600139,2.63616249 13.6479449,2.52670577 C13.5338806,2.42396041 13.3853241,2.36755388 13.231584,2.36859983 L9.44468307,2.42789874 C9.11618344,2.4333557 8.85432023,2.70320393 8.85979523,3.03062162 C8.86527022,3.35803931 9.13601015,3.61904006 9.46450978,3.6135831 L11.8238879,3.57406028 L2.57174507,12.9108399 C2.34179533,13.1454892 2.34623369,13.5215072 2.58165842,13.7506996 C2.81708316,13.979892 3.19434371,13.9754683 3.42429345,13.7408189 L12.6566095,4.38427793 L12.6962629,6.73588523 C12.6962629,7.06330293 12.9625645,7.32872741 13.2910641,7.32872741 C13.4523113,7.32881672 13.6066854,7.26365141 13.7188201,7.14816048 C13.8309548,7.03266955 13.8912403,6.87675061 13.8858653,6.71612383 Z" id="icon-color" fill="#3887FF" transform="translate(8.144171, 8.144171) rotate(135.000000) translate(-8.144171, -8.144171) "></path>
    </g>
</svg>