<?xml version="1.0" encoding="UTF-8"?>
<svg width="16px" height="16px" viewBox="0 0 16 16" version="1.1" xmlns="http://www.w3.org/2000/svg" xmlns:xlink="http://www.w3.org/1999/xlink">
    <!-- Generator: Sketch 55.2 (78181) - https://sketchapp.com -->
    <title>icon-navigation-overflow menu-16_icon-01</title>
    <desc>Created with Sketch.</desc>
    <defs>
        <path d="M8,4 C8.55228475,4 9,3.55228475 9,3 C9,2.44771525 8.55228475,2 8,2 C7.44771525,2 7,2.44771525 7,3 C7,3.55228475 7.44771525,4 8,4 Z M8,9 C8.55228475,9 9,8.55228475 9,8 C9,7.44771525 8.55228475,7 8,7 C7.44771525,7 7,7.44771525 7,8 C7,8.55228475 7.44771525,9 8,9 Z M8,14 C8.55228475,14 9,13.5522847 9,13 C9,12.4477153 8.55228475,12 8,12 C7.44771525,12 7,12.4477153 7,13 C7,13.5522847 7.44771525,14 8,14 Z" id="path-1"></path>
    </defs>
    <g id="icon-navigation-overflow-menu-16_icon-01" stroke="none" stroke-width="1" fill="none" fill-rule="evenodd">
        <mask id="mask-2" fill="white">
            <use xlink:href="#path-1"></use>
        </mask>
        <use id="icon-color" fill="#252B39" xlink:href="#path-1"></use>
    </g>
</svg>