<?xml version="1.0" encoding="UTF-8"?>
<svg width="16px" height="16px" viewBox="0 0 16 16" version="1.1" xmlns="http://www.w3.org/2000/svg" xmlns:xlink="http://www.w3.org/1999/xlink">
    <!-- Generator: Sketch 55.2 (78181) - https://sketchapp.com -->
    <title>icon-image-view off-16_icon-01</title>
    <desc>Created with Sketch.</desc>
    <g id="icon-image-view-off-16_icon-01" stroke="none" stroke-width="1" fill="none" fill-rule="evenodd">
        <path d="M12.6055324,4.09946757 C13.8720754,5.02387809 14.8795368,6.30499837 15.4697873,7.83 C15.5095037,7.9398538 15.5095037,8.0601462 15.4697873,8.17 C14.2667193,11.2783085 11.3303933,13.373438 7.99978728,13.5 C6.65801107,13.4490129 5.38022581,13.0785309 4.25397901,12.451021 L1.705,15 L1,14.295 L14.295,1 L15,1.705 L12.6055324,4.09946757 Z M4.9935192,11.7114808 C5.94488621,12.2109222 6.98337025,12.5 7.99978728,12.5 C10.6497873,12.5 13.4497873,10.535 14.4647873,8 C13.9624647,6.74543082 13.0229508,5.63046894 11.8807932,4.82420681 L10.4443732,6.26062677 C10.7940828,6.75124007 10.9997873,7.35159761 10.9997873,8 C10.9997873,9.65685425 9.65664153,11 7.99978728,11 C7.35138489,11 6.75102736,10.7942955 6.26041405,10.4445859 L4.9935192,11.7114808 Z M6.9826134,9.7223866 C7.28063451,9.89876601 7.62838866,10 7.99978728,10 C8.53022026,10 9.03892809,9.78928632 9.41400084,9.41421356 C9.7890736,9.03914081 9.99978728,8.53043298 9.99978728,8 C9.99978728,7.62860138 9.89855329,7.28084723 9.72217388,6.98282612 L6.9826134,9.7223866 Z M10.7983135,3.09668649 L10.0320552,3.8629448 C9.36644569,3.62878348 8.67820109,3.5 7.99978728,3.5 C5.34978728,3.5 2.54978728,5.465 1.53478728,8 C1.9179111,8.95686589 2.55535721,9.83251961 3.34306167,10.5519383 L2.62726639,11.2677336 C1.72031584,10.4237482 0.995299363,9.37272099 0.529787282,8.17 C0.490070906,8.0601462 0.490070906,7.9398538 0.529787282,7.83 C1.73285531,4.72169147 4.66918123,2.626562 7.99978728,2.5 C8.97794273,2.5371696 9.92209073,2.74413211 10.7983135,3.09668649 Z M5.10491556,8.79008444 C5.03637265,8.53835314 4.99978728,8.27344906 4.99978728,8 C4.99978728,6.34314575 6.34293303,5 7.99978728,5 C8.27323634,5 8.53814042,5.03658536 8.78987172,5.10512828 L7.89215276,6.00284724 C6.87326814,6.05687874 6.05666602,6.87348086 6.00263416,7.89236584 L5.10491556,8.79008444 Z" id="icon-color" fill="#252B39"></path>
    </g>
</svg>