<?xml version="1.0" encoding="UTF-8"?>
<svg width="16px" height="16px" viewBox="0 0 16 16" version="1.1" xmlns="http://www.w3.org/2000/svg" xmlns:xlink="http://www.w3.org/1999/xlink">
    <!-- Generator: Sketch 55.2 (78181) - https://sketchapp.com -->
    <title>icon-navigation-settings-16_icon-accent-02</title>
    <desc>Created with Sketch.</desc>
    <g id="icon-navigation-settings-16_icon-accent-02" stroke="none" stroke-width="1" fill="none" fill-rule="evenodd">
        <path d="M8.88,16 L7.12,16 C6.48687911,16 5.97239667,15.4891056 5.968,14.856 L5.968,13.896 C5.72594981,13.8159059 5.49056016,13.7169353 5.264,13.6 L4.592,14.28 C4.37980249,14.4927083 4.09244274,14.6133994 3.792,14.616 L3.792,14.616 C3.49137939,14.6142661 3.20370318,14.4934421 2.992,14.28 L1.72,13.032 C1.28922315,12.585652 1.28922315,11.878348 1.72,11.432 L2.4,10.736 C2.28758537,10.5056413 2.19135249,10.2677322 2.112,10.024 L1.144,10.024 C0.840592336,10.024 0.549611459,9.90347177 0.335069842,9.68893016 C0.120528225,9.47438854 0,9.18340766 0,8.88 L0,7.12 C0,6.48687911 0.510894379,5.97239667 1.144,5.968 L2.104,5.968 C2.1873909,5.72719918 2.28626381,5.49204201 2.4,5.264 L1.728,4.584 C1.51228815,4.37383567 1.39104604,4.08516397 1.392,3.784 C1.39373391,3.48337939 1.51455791,3.19570318 1.728,2.984 L2.968,1.72 C3.41434801,1.28922315 4.12165199,1.28922315 4.568,1.72 L5.264,2.4 C5.49224136,2.2889879 5.72739459,2.19278885 5.968,2.112 L5.968,1.144 C5.97239667,0.510894379 6.48687911,0 7.12,0 L8.88,0 C9.51312089,0 10.0276033,0.510894379 10.032,1.144 L10.032,2.104 C10.2726054,2.18478885 10.5077586,2.2809879 10.736,2.392 L11.408,1.72 C11.854348,1.28922315 12.561652,1.28922315 13.008,1.72 L14.256,2.968 C14.6867768,3.41434801 14.6867768,4.12165199 14.256,4.568 L13.6,5.264 C13.7110121,5.49224136 13.8072112,5.72739459 13.888,5.968 L14.848,5.968 C15.1535294,5.968 15.4465451,6.08937108 15.662587,6.30541299 C15.8786289,6.5214549 16,6.8144706 16,7.12 L16,8.88 C16,9.51181375 15.4878138,10.024 14.856,10.024 L13.896,10.024 C13.8166475,10.2677322 13.7204146,10.5056413 13.608,10.736 L14.28,11.408 C14.7107768,11.854348 14.7107768,12.561652 14.28,13.008 L13.032,14.256 C12.5808506,14.6747193 11.8831494,14.6747193 11.432,14.256 L10.736,13.6 C10.5094398,13.7169353 10.2740502,13.8159059 10.032,13.896 L10.032,14.856 C10.0276033,15.4891056 9.51312089,16 8.88,16 Z M5.12,12.616 L5.384,12.76 C5.73009493,12.9546432 6.09797934,13.1077046 6.48,13.216 L6.776,13.304 L6.776,14.856 C6.776,14.9472345 6.81224275,15.0347322 6.87675527,15.0992447 C6.94126778,15.1637572 7.02876553,15.2 7.12,15.2 L8.88,15.2 C9.06998595,15.2 9.224,15.045986 9.224,14.856 L9.224,13.304 L9.52,13.216 C9.90027127,13.1204379 10.2680921,12.9808271 10.616,12.8 L10.88,12.656 L12,13.712 C12.0645729,13.7769758 12.1523948,13.8135129 12.244,13.8135129 C12.3356052,13.8135129 12.4234271,13.7769758 12.488,13.712 L13.736,12.464 C13.8009758,12.3994271 13.8375129,12.3116052 13.8375129,12.22 C13.8375129,12.1283948 13.8009758,12.0405729 13.736,11.976 L12.616,10.88 L12.76,10.616 C12.957983,10.2715416 13.1112196,9.90323611 13.216,9.52 L13.304,9.224 L14.856,9.224 C15.045986,9.224 15.2,9.06998595 15.2,8.88 L15.2,7.12 C15.2,6.92867759 15.047273,6.77234823 14.856,6.768 L13.304,6.768 L13.216,6.48 C13.1238997,6.09864964 12.984133,5.73041826 12.8,5.384 L12.656,5.12 L13.712,4 C13.7781231,3.93435576 13.8155223,3.84517298 13.816,3.752 C13.8142865,3.66142695 13.7769153,3.5751856 13.712,3.512 L12.464,2.288 C12.3994271,2.2230242 12.3116052,2.18648711 12.22,2.18648711 C12.1283948,2.18648711 12.0405729,2.2230242 11.976,2.288 L10.88,3.384 L10.616,3.2 C10.2667062,3.01200174 9.89956201,2.85924832 9.52,2.744 L9.224,2.664 L9.224,1.144 C9.224,0.954014046 9.06998595,0.8 8.88,0.8 L7.12,0.8 C6.93001405,0.8 6.776,0.954014046 6.776,1.144 L6.776,2.696 L6.48,2.776 C6.09894765,2.89053711 5.73146013,3.04611576 5.384,3.24 L5.12,3.384 L4,2.288 C3.93542707,2.2230242 3.84760523,2.18648711 3.756,2.18648711 C3.66439477,2.18648711 3.57657293,2.2230242 3.512,2.288 L2.288,3.536 C2.22308473,3.5991856 2.18571347,3.68542695 2.184,3.776 C2.19047603,3.86077653 2.22741809,3.94034406 2.288,4 L3.384,5.12 L3.24,5.384 C3.04535679,5.73009493 2.89229539,6.09797934 2.784,6.48 L2.696,6.768 L1.144,6.768 C0.952726999,6.77234823 0.799999988,6.92867759 0.799999988,7.12 L0.799999988,8.88 C0.799999988,9.06998595 0.954014046,9.224 1.144,9.224 L2.696,9.224 L2.784,9.512 C2.89082375,9.89707663 3.04394095,10.2677814 3.24,10.616 L3.384,10.88 L2.288,12 C2.2230242,12.0645729 2.18648711,12.1523948 2.18648711,12.244 C2.18648711,12.3356052 2.2230242,12.4234271 2.288,12.488 L3.536,13.736 C3.67385016,13.8630719 3.88614984,13.8630719 4.024,13.736 L5.12,12.616 Z M8,10.44 C6.6745166,10.44 5.6,9.3654834 5.6,8.04 C5.6,6.7145166 6.6745166,5.64 8,5.64 C9.3254834,5.64 10.4,6.7145166 10.4,8.04 C10.4,8.67651958 10.1471436,9.28696897 9.69705627,9.73705627 C9.24696897,10.1871436 8.63651958,10.44 8,10.44 L8,10.44 Z M8,6.44 C7.1163444,6.44 6.4,7.1563444 6.4,8.04 C6.4,8.9236556 7.1163444,9.64 8,9.64 C8.8836556,9.64 9.6,8.9236556 9.6,8.04 C9.61078424,7.60876618 9.44698621,7.19144765 9.1457512,6.88268176 C8.84451618,6.57391587 8.43136863,6.39986518 8,6.39999992 L8,6.44 Z" id="icon-color" fill="#3887FF"></path>
    </g>
</svg>