<?xml version="1.0" encoding="UTF-8"?>
<svg width="16px" height="16px" viewBox="0 0 16 16" version="1.1" xmlns="http://www.w3.org/2000/svg" xmlns:xlink="http://www.w3.org/1999/xlink">
    <!-- Generator: Sketch 55.2 (78181) - https://sketchapp.com -->
    <title>icon-image-calendar-16_icon-accent-02</title>
    <desc>Created with Sketch.</desc>
    <g id="icon-image-calendar-16_icon-accent-02" stroke="none" stroke-width="1" fill="none" fill-rule="evenodd">
        <path d="M14,6 L14,4 C14,3.44771525 13.5522847,3 13,3 L11.999826,3 L11.999826,4 L10.999826,4 L10.999826,3 L4.99982601,3 L4.99982601,4 L3.99982601,4 L3.99982601,3 L3,3 C2.44771525,3 2,3.44771525 2,4 L2,6 L14,6 Z M14,7 L2,7 L2,13 C2,13.5522847 2.44771525,14 3,14 L13,14 C13.5522847,14 14,13.5522847 14,13 L14,7 Z M11.999826,2 L13,2 C14.1045695,2 15,2.8954305 15,4 L15,13 C15,14.1045695 14.1045695,15 13,15 L3,15 C1.8954305,15 1,14.1045695 1,13 L1,4 C1,2.8954305 1.8954305,2 3,2 L3.99982601,2 L3.99982601,1 L4.99982601,1 L4.99982601,2 L10.999826,2 L10.999826,1 L11.999826,1 L11.999826,2 Z" id="icon-color" fill="#3887FF"></path>
    </g>
</svg>