<?xml version="1.0" encoding="UTF-8"?>
<svg width="16px" height="16px" viewBox="0 0 16 16" version="1.1" xmlns="http://www.w3.org/2000/svg" xmlns:xlink="http://www.w3.org/1999/xlink">
    <!-- Generator: Sketch 55.2 (78181) - https://sketchapp.com -->
    <title>icon-image-chart-16</title>
    <desc>Created with Sketch.</desc>
    <g id="icon-image-chart-16" stroke="none" stroke-width="1" fill="none" fill-rule="evenodd">
        <path d="M4,14 L5,14 L5,2 C5,1.44771525 5.44771525,1 6,1 L7,1 C7.55228475,1 8,1.44771525 8,2 L8,14 L9,14 L9,4 C9,3.44771525 9.44771525,3 10,3 L11,3 C11.5522847,3 12,3.44771525 12,4 L12,14 L13,14 L13,10 C13,9.44771525 13.4477153,9 14,9 L15,9 C15.5522847,9 16,9.44771525 16,10 L16,14 L16,15 L0,15 L0,14 L1,14 L1,6 C1,5.44771525 1.44771525,5 2,5 L3,5 C3.55228475,5 4,5.44771525 4,6 L4,14 Z M3,14 L3,6 L2,6 L2,14 L3,14 Z M7,14 L7,2 L6,2 L6,14 L7,14 Z M11,14 L11,4 L10,4 L10,14 L11,14 Z M15,14 L15,10 L14,10 L14,14 L15,14 Z" id="icon-color" fill="#3887FF"></path>
    </g>
</svg>