<?xml version="1.0" encoding="UTF-8" standalone="no"?>
<!DOCTYPE svg PUBLIC "-//W3C//DTD SVG 1.1//EN" "http://www.w3.org/Graphics/SVG/1.1/DTD/svg11.dtd">
<svg version="1.1" xmlns="http://www.w3.org/2000/svg" xmlns:xlink="http://www.w3.org/1999/xlink" preserveAspectRatio="xMidYMid meet" viewBox="0 0 16 16" width="640" height="640"><defs><path d="M5.24 4.02L5.42 4.08L5.47 4.1L5.53 4.13L5.58 4.16L5.63 4.21L5.73 4.28L6.97 5.53L7.05 5.58L7.07 5.59L7.12 5.6L7.16 5.6L7.19 5.61L13.03 5.61L13.16 5.62L13.29 5.65L13.41 5.69L13.52 5.75L13.62 5.82L13.72 5.9L13.8 5.99L13.92 6.2L13.97 6.32L13.99 6.45L14 6.58L14 11.73L13.99 11.86L13.97 11.99L13.92 12.11L13.86 12.21L13.79 12.32L13.72 12.41L13.61 12.48L13.52 12.56L13.4 12.61L13.29 12.66L13.16 12.68L13.03 12.69L2.96 12.69L2.83 12.68L2.71 12.66L2.58 12.61L2.47 12.55L2.37 12.48L2.28 12.41L2.2 12.32L2.14 12.21L2.08 12.11L2.03 11.98L2.01 11.85L2 11.72L2 4.9L2.01 4.84L2.03 4.71L2.05 4.65L2.08 4.6L2.09 4.54L2.13 4.48L2.16 4.43L2.24 4.33L2.33 4.24L2.43 4.16L2.48 4.13L2.54 4.09L2.6 4.08L2.65 4.05L2.71 4.03L2.83 4.01L2.9 4L5.11 4L5.18 4.01L5.24 4.02ZM2.9 4.64L2.85 4.67L2.75 4.73L2.71 4.76L2.66 4.83L2.63 4.86L2.63 4.9L2.61 4.93L2.61 11.72L2.62 11.78L2.63 11.83L2.64 11.88L2.69 11.96L2.73 12L2.81 12.05L2.86 12.06L2.96 12.08L13.03 12.08L13.13 12.06L13.19 12.05L13.23 12.02L13.26 12L13.3 11.96L13.33 11.92L13.36 11.88L13.37 11.83L13.38 11.78L13.39 11.72L13.39 6.58L13.38 6.52L13.37 6.48L13.36 6.43L13.33 6.38L13.3 6.35L13.26 6.31L13.23 6.28L13.19 6.26L13.13 6.24L13.03 6.22L7.14 6.22L7.07 6.21L7 6.2L6.94 6.18L6.87 6.16L6.81 6.14L6.74 6.1L6.68 6.07L6.58 5.99L5.27 4.68L5.22 4.65L5.2 4.64L5.18 4.63L5.13 4.62L5.09 4.62L5.08 4.61L2.96 4.61L2.9 4.64Z" id="blPfCRGoC"></path><path d="M5.78 4.02L5.99 4.09L6.05 4.12L6.12 4.15L6.18 4.19L6.24 4.24L6.35 4.33L7.8 5.78L7.89 5.84L7.91 5.85L7.97 5.87L8.02 5.87L8.05 5.88L14.87 5.88L15.02 5.89L15.17 5.92L15.31 5.97L15.44 6.04L15.56 6.12L15.67 6.21L15.77 6.32L15.91 6.56L15.96 6.71L15.99 6.86L16 7.01L16 13.01L15.99 13.16L15.96 13.31L15.91 13.45L15.84 13.57L15.76 13.7L15.67 13.8L15.55 13.89L15.44 13.98L15.3 14.04L15.17 14.09L15.02 14.12L14.87 14.13L3.12 14.13L2.97 14.12L2.83 14.09L2.68 14.04L2.55 13.97L2.43 13.89L2.33 13.8L2.23 13.7L2.16 13.57L2.09 13.45L2.04 13.3L2.01 13.15L2 13L2 5.05L2.01 4.98L2.04 4.83L2.06 4.76L2.09 4.7L2.11 4.63L2.15 4.56L2.19 4.5L2.28 4.38L2.38 4.28L2.5 4.19L2.56 4.15L2.63 4.11L2.7 4.09L2.76 4.06L2.83 4.04L2.97 4.01L3.05 4L5.63 4L5.71 4.01L5.78 4.02ZM3.05 4.75L2.99 4.78L2.88 4.85L2.83 4.89L2.77 4.97L2.74 5L2.73 5.05L2.71 5.08L2.71 13L2.72 13.07L2.73 13.13L2.75 13.18L2.81 13.28L2.85 13.32L2.95 13.38L3 13.4L3.12 13.42L14.87 13.42L14.99 13.4L15.05 13.38L15.1 13.35L15.14 13.32L15.18 13.28L15.22 13.23L15.25 13.18L15.27 13.13L15.28 13.07L15.29 13L15.29 7.01L15.28 6.94L15.27 6.89L15.25 6.83L15.22 6.78L15.18 6.74L15.14 6.69L15.1 6.66L15.05 6.63L14.99 6.61L14.87 6.59L8 6.59L7.91 6.58L7.83 6.56L7.76 6.54L7.68 6.52L7.61 6.49L7.53 6.45L7.46 6.41L7.34 6.32L5.81 4.79L5.76 4.76L5.73 4.75L5.71 4.74L5.65 4.72L5.61 4.72L5.59 4.71L3.12 4.71L3.05 4.75Z" id="bRihw7k8A"></path><path d="M15.06 0.07L15.22 0.14L15.37 0.25L15.5 0.37L15.63 0.52L15.73 0.69L15.82 0.88L15.9 1.08L15.95 1.31L15.99 1.54L16 1.78L16 14.33L15.99 14.46L15.96 14.68L15.93 14.8L15.9 14.9L15.87 15.01L15.83 15.11L15.78 15.21L15.63 15.48L15.56 15.56L15.43 15.7L15.36 15.76L15.28 15.82L15.2 15.86L15.13 15.91L15.05 15.94L14.89 15.99L14.8 16L11.85 16L11.76 15.99L11.68 15.97L11.44 15.86L11.37 15.81L11.29 15.76L11.22 15.7L11.15 15.63L11.02 15.47L9.37 13.19L9.3 13.12L9.27 13.1L9.24 13.09L9.21 13.06L9.15 13.04L9.12 13.04L9.09 13.03L1.29 13.03L1.12 13.02L0.95 12.96L0.79 12.89L0.64 12.78L0.5 12.66L0.38 12.51L0.27 12.34L0.18 12.15L0.11 11.95L0.05 11.72L0.02 11.49L0 11.25L0 1.77L0.02 1.53L0.05 1.29L0.11 1.08L0.18 0.88L0.28 0.69L0.38 0.52L0.51 0.37L0.64 0.24L0.8 0.14L0.95 0.07L1.12 0.01L1.29 0L14.72 0L14.89 0.01L15.06 0.07ZM1.15 1.15L1.09 1.18L1.03 1.23L0.98 1.28L0.93 1.35L0.89 1.42L0.86 1.5L0.82 1.68L0.81 1.78L0.81 11.25L0.82 11.35L0.86 11.53L0.89 11.61L0.93 11.68L0.98 11.75L1.03 11.8L1.09 11.85L1.15 11.88L1.29 11.9L9.15 11.9L9.24 11.93L9.33 11.95L9.42 11.98L9.5 12.02L9.59 12.06L9.67 12.13L9.76 12.19L9.9 12.34L11.64 14.75L11.71 14.8L11.73 14.82L11.76 14.83L11.8 14.85L11.83 14.86L11.87 14.86L11.9 14.87L14.72 14.87L14.8 14.82L14.87 14.76L15 14.65L15.05 14.59L15.09 14.54L15.12 14.47L15.15 14.41L15.19 14.29L15.19 1.78L15.18 1.68L15.17 1.59L15.15 1.51L15.11 1.42L15.07 1.35L15.02 1.28L14.98 1.23L14.91 1.18L14.85 1.15L14.79 1.14L14.72 1.13L1.29 1.13L1.15 1.15Z" id="c13jV0pWBJ"></path><path d="M15.06 0.07L15.22 0.14L15.37 0.25L15.5 0.37L15.63 0.52L15.73 0.69L15.82 0.88L15.9 1.08L15.95 1.31L15.99 1.54L16 1.78L16 14.33L15.99 14.46L15.96 14.68L15.93 14.8L15.9 14.9L15.87 15.01L15.83 15.11L15.78 15.21L15.63 15.48L15.56 15.56L15.43 15.7L15.36 15.76L15.28 15.82L15.2 15.86L15.13 15.91L15.05 15.94L14.89 15.99L14.8 16L11.85 16L11.76 15.99L11.68 15.97L11.44 15.86L11.37 15.81L11.29 15.76L11.22 15.7L11.15 15.63L11.02 15.47L9.37 13.19L9.3 13.12L9.27 13.1L9.24 13.09L9.21 13.06L9.15 13.04L9.12 13.04L9.09 13.03L1.29 13.03L1.12 13.02L0.95 12.96L0.79 12.89L0.64 12.78L0.5 12.66L0.38 12.51L0.27 12.34L0.18 12.15L0.11 11.95L0.05 11.72L0.02 11.49L0 11.25L0 1.77L0.02 1.53L0.05 1.29L0.11 1.08L0.18 0.88L0.28 0.69L0.38 0.52L0.51 0.37L0.64 0.24L0.8 0.14L0.95 0.07L1.12 0.01L1.29 0L14.72 0L14.89 0.01L15.06 0.07ZM1.15 1.15L1.09 1.18L1.03 1.23L0.98 1.28L0.93 1.35L0.89 1.42L0.86 1.5L0.82 1.68L0.81 1.78L0.81 11.25L0.82 11.35L0.86 11.53L0.89 11.61L0.93 11.68L0.98 11.75L1.03 11.8L1.09 11.85L1.15 11.88L1.29 11.9L9.15 11.9L9.24 11.93L9.33 11.95L9.42 11.98L9.5 12.02L9.59 12.06L9.67 12.13L9.76 12.19L9.9 12.34L11.64 14.75L11.71 14.8L11.73 14.82L11.76 14.83L11.8 14.85L11.83 14.86L11.87 14.86L11.9 14.87L14.72 14.87L14.8 14.82L14.87 14.76L15 14.65L15.05 14.59L15.09 14.54L15.12 14.47L15.15 14.41L15.19 14.29L15.19 1.78L15.18 1.68L15.17 1.59L15.15 1.51L15.11 1.42L15.07 1.35L15.02 1.28L14.98 1.23L14.91 1.18L14.85 1.15L14.79 1.14L14.72 1.13L1.29 1.13L1.15 1.15Z" id="dFJceQGRf"></path></defs><g><g><g><use xlink:href="#blPfCRGoC" opacity="1" fill="#252b39" fill-opacity="1"></use><g><use xlink:href="#blPfCRGoC" opacity="1" fill-opacity="0" stroke="#000000" stroke-width="1" stroke-opacity="0"></use></g></g><g><use xlink:href="#bRihw7k8A" opacity="1" fill="#000000" fill-opacity="0"></use><g><use xlink:href="#bRihw7k8A" opacity="1" fill-opacity="0" stroke="#000000" stroke-width="1" stroke-opacity="0"></use></g></g><g><use xlink:href="#c13jV0pWBJ" opacity="1" fill="#000000" fill-opacity="0"></use><g><use xlink:href="#c13jV0pWBJ" opacity="1" fill-opacity="0" stroke="#000000" stroke-width="1" stroke-opacity="0"></use></g></g><g><use xlink:href="#dFJceQGRf" opacity="1" fill="#000000" fill-opacity="0"></use><g><use xlink:href="#dFJceQGRf" opacity="1" fill-opacity="0" stroke="#000000" stroke-width="1" stroke-opacity="0"></use></g></g></g></g></svg>