<?xml version="1.0" encoding="utf-8"?>
<!DOCTYPE svg PUBLIC "-//W3C//DTD SVG 1.1//EN" "http://www.w3.org/Graphics/SVG/1.1/DTD/svg11.dtd">
<svg version="1.1" xmlns="http://www.w3.org/2000/svg" xmlns:xlink="http://www.w3.org/1999/xlink" x="0px" y="0px" viewBox="0 0 1000 1000">
  <g transform="translate(0.000000,511.000000) scale(0.100000,-0.100000)">
    <path fill='#252b39' d="M8679.3,4989.4c-175-25.9-425.6-116.7-583.3-209.6c-80-47.5-278.7-224.7-525-466.7l-393.2-388.9L6912,4187.8c-263.6,263.6-330.6,306.8-447.2,289.5c-36.7-4.3-488.3-440.8-1464.8-1415.1c-775.6-775.6-1426-1434.6-1443.2-1467c-51.9-99.4-38.9-185.8,43.2-267.9c77.8-77.8,166.4-95.1,257.1-49.7c25.9,13,637.4,613.6,1359,1333l1313.6,1311.5l162-162l162.1-162L4574.3,1318.6L2294.9-960.7l816.7-816.7l814.5-814.5L6203.3-314.7l2279.4,2279.4l58.3-32.4c34.6-17.3,79.9-30.3,105.9-30.3c64.8,0,168.5,58.3,196.6,110.2c30.3,60.5,30.3,175-2.1,235.5c-23.8,43.2,0,73.4,317.6,395.4c190.1,192.3,384.6,404,434.3,471c175,231.2,306.8,609.3,306.8,866.4c-2.1,261.4-108,535.8-283,719.5C9396.6,4933.2,9035.8,5043.4,8679.3,4989.4z"/><path d="M1750.5-1505.2l-207.4-211.7L815-3116.9C143-4406.8,86.9-4521.3,102-4592.6c23.8-138.3,166.4-224.7,289.5-177.2c32.4,10.8,667.6,337,1417.3,725.9l1359,706.5l218.2,209.6l216.1,209.6l-810.2,812.4c-445.1,445.1-814.5,810.2-821,810.2C1964.4-1295.6,1865-1390.7,1750.5-1505.2z"/>
  </g>
</svg>