<?xml version="1.0" encoding="UTF-8"?>
<svg width="16px" height="16px" viewBox="0 0 16 16" version="1.1" xmlns="http://www.w3.org/2000/svg" xmlns:xlink="http://www.w3.org/1999/xlink">
    <!-- Generator: Sketch 55.2 (78181) - https://sketchapp.com -->
    <title>icon-navigation-collapse-16</title>
    <desc>Created with Sketch.</desc>
    <g id="icon-navigation-collapse-16" stroke="none" stroke-width="1" fill="none" fill-rule="evenodd">
        <path d="M6.1277704,1 L9.8722296,1 C11.6552671,1 12.3018396,1.18565122 12.9536914,1.53426541 C13.6055433,1.88287959 14.1171204,2.39445674 14.4657346,3.04630859 C14.8143488,3.69816044 15,4.34473292 15,6.1277704 L15,9.8722296 C15,11.6552671 14.8143488,12.3018396 14.4657346,12.9536914 C14.1171204,13.6055433 13.6055433,14.1171204 12.9536914,14.4657346 C12.3018396,14.8143488 11.6552671,15 9.8722296,15 L6.1277704,15 C4.34473292,15 3.69816044,14.8143488 3.04630859,14.4657346 C2.39445674,14.1171204 1.88287959,13.6055433 1.53426541,12.9536914 C1.18565122,12.3018396 1,11.6552671 1,9.8722296 L1,6.1277704 C1,4.34473292 1.18565122,3.69816044 1.53426541,3.04630859 C1.88287959,2.39445674 2.39445674,1.88287959 3.04630859,1.53426541 C3.69816044,1.18565122 4.34473292,1 6.1277704,1 Z M6.1277704,2 C4.65310186,2 4.09403919,2.10795998 3.51790745,2.41607861 C3.04032407,2.67149299 2.67149299,3.04032407 2.41607861,3.51790745 C2.10795998,4.09403919 2,4.65310186 2,6.1277704 L2,9.8722296 C2,11.3468981 2.10795998,11.9059608 2.41607861,12.4820925 C2.67149299,12.9596759 3.04032407,13.328507 3.51790745,13.5839214 C4.09403919,13.89204 4.65310186,14 6.1277704,14 L9.8722296,14 C11.3468981,14 11.9059608,13.89204 12.4820925,13.5839214 C12.9596759,13.328507 13.328507,12.9596759 13.5839214,12.4820925 C13.89204,11.9059608 14,11.3468981 14,9.8722296 L14,6.1277704 C14,4.65310186 13.89204,4.09403919 13.5839214,3.51790745 C13.328507,3.04032407 12.9596759,2.67149299 12.4820925,2.41607861 C11.9059608,2.10795998 11.3468981,2 9.8722296,2 L6.1277704,2 Z" id="border" fill="#7C8088"></path>
        <polygon id="icon-color" fill="#3887FF" points="5 7.5 5 8.5 11 8.5 11 7.5"></polygon>
    </g>
</svg>