<?xml version="1.0" encoding="UTF-8"?>
<svg width="16px" height="16px" viewBox="0 0 16 16" version="1.1" xmlns="http://www.w3.org/2000/svg" xmlns:xlink="http://www.w3.org/1999/xlink">
    <!-- Generator: Sketch 55.2 (78181) - https://sketchapp.com -->
    <title>icon-navigation-minimize-16_icon-accent-02</title>
    <desc>Created with Sketch.</desc>
    <g id="icon-navigation-minimize-16_icon-accent-02" stroke="none" stroke-width="1" fill="none" fill-rule="evenodd">
        <path d="M9.47265795,2.12045847 C9.80115758,2.12045847 10.0674591,2.38588296 10.0674591,2.71330065 L10.0674591,5.06490796 L14.4293346,0.737160059 C14.5689763,0.551584272 14.8043819,0.464232521 15.0317845,0.51360943 C15.2591871,0.56298634 15.4368055,0.740019757 15.4863456,0.96667341 C15.5358857,1.19332706 15.4482453,1.42795727 15.2620563,1.56713911 L10.9200075,5.91464842 L13.2793856,5.91464842 C13.6078852,5.91464842 13.8741868,6.1800729 13.8741868,6.50749059 C13.8741868,6.83490829 13.6078852,7.10033277 13.2793856,7.10033277 L9.47265795,7.10033277 C9.14415832,7.10033277 8.87785675,6.83490829 8.87785675,6.50749059 L8.87785675,2.71330065 C8.87785675,2.38588296 9.14415832,2.12045847 9.47265795,2.12045847 Z M7.03397304,13.24613 C7.03934797,13.4067568 6.97906254,13.5626757 6.8669278,13.6781667 C6.75479306,13.7936576 6.60041899,13.8588229 6.43917185,13.8587336 C6.11067222,13.8587336 5.84437065,13.5933091 5.84437065,13.2658914 L5.80471724,10.9142841 L1.52214862,15.3210776 C1.29219888,15.555727 0.914938331,15.5601507 0.679513597,15.3309583 C0.444088862,15.101766 0.439650502,14.7257479 0.669600243,14.4910986 L4.97199556,10.1040665 L2.61261748,10.1435893 C2.28411785,10.1490462 2.01337793,9.88804551 2.00790293,9.56062781 C2.00242794,9.23321012 2.26429115,8.96336189 2.59279078,8.95790493 L6.37969173,8.89860602 C6.53343184,8.89756007 6.68198827,8.9539666 6.79605256,9.05671196 C6.90812159,9.16616868 6.97225823,9.31532794 6.97449292,9.47170148 L7.03397304,13.24613 Z" id="icon-color" fill="#3887FF"></path>
    </g>
</svg>