<?xml version="1.0" encoding="UTF-8"?>
<svg width="16px" height="16px" viewBox="0 0 16 16" version="1.1" xmlns="http://www.w3.org/2000/svg" xmlns:xlink="http://www.w3.org/1999/xlink">
    <!-- Generator: Sketch 56.2 (81672) - https://sketch.com -->
    <title>icon-image-filter-16-icon-03</title>
    <desc>Created with Sketch.</desc>
    <g id="icon-image-filter-16-icon-03" stroke="none" stroke-width="1" fill="none" fill-rule="evenodd">
        <path d="M14,5.5 C14,5.77614237 13.7761424,6 13.5,6 L2.5,6 C2.22385763,6 2,5.77614237 2,5.5 C2,5.22385763 2.22385763,5 2.5,5 L13.5,5 C13.7761424,5 14,5.22385763 14,5.5 Z M12,8.5 C12,8.77614237 11.7761424,9 11.5,9 L4.5,9 C4.22385763,9 4,8.77614237 4,8.5 C4,8.22385763 4.22385763,8 4.5,8 L11.5,8 C11.7761424,8 12,8.22385763 12,8.5 Z M10,11.5 C10,11.7761424 9.77614237,12 9.5,12 L6.5,12 C6.22385763,12 6,11.7761424 6,11.5 C6,11.2238576 6.22385763,11 6.5,11 L9.5,11 C9.77614237,11 10,11.2238576 10,11.5 Z" id="icon-color" fill="#7C8088"></path>
    </g>
</svg>