<?xml version="1.0" encoding="UTF-8"?>
<svg width="16px" height="16px" viewBox="0 0 16 16" version="1.1" xmlns="http://www.w3.org/2000/svg" xmlns:xlink="http://www.w3.org/1999/xlink">
    <!-- Generator: Sketch 55.2 (78181) - https://sketchapp.com -->
    <title>icon-file-upload file_icon-01</title>
    <desc>Created with Sketch.</desc>
    <g id="icon-file-upload-file_icon-01" stroke="none" stroke-width="1" fill="none" fill-rule="evenodd">
        <path d="M1.08843537,6.45945946 C1.08843537,6.75675676 0.843537415,7 0.544217687,7 C0.244897959,7 -8.46434034e-13,6.75675676 -8.46434034e-13,6.45945946 L-8.46434034e-13,3.16216216 C-8.46434034e-13,1.97297297 0.979591837,1 2.17687075,1 L13.8231293,1 C15.0204082,1 16,1.97297297 16,3.16216216 L16,6.45945946 C16,6.75675676 15.755102,7 15.4557823,7 C15.1564626,7 14.9115646,6.75675676 14.9115646,6.45945946 L14.9115646,3.16216216 C14.9115646,2.56756757 14.4217687,2.08108108 13.8231293,2.08108108 L2.17687075,2.08108108 C1.57823129,2.08108108 1.08843537,2.56756757 1.08843537,3.16216216 L1.08843537,6.45945946 Z M7.6574553,5.13839194 C7.85685723,4.97633457 8.14272675,4.97684459 8.34154918,5.13961242 L8.37370874,5.16594015 L12.1478134,8.66456274 C12.2580063,8.77475557 12.3406509,8.91249662 12.3406509,9.07778588 C12.3406509,9.21552692 12.2855545,9.35326797 12.1753616,9.46346081 C11.954976,9.68384648 11.6243974,9.68384648 11.4040118,9.49100902 L8.538998,6.81883271 L8.538998,14.4496867 C8.538998,14.752717 8.29106411,15.0006509 7.98803381,15.0006509 C7.68500351,15.0006509 7.43706962,14.752717 7.43706962,14.4496867 L7.43706962,6.81883271 L4.57205585,9.49100902 C4.35167017,9.68384648 4.02109166,9.68384648 3.80070599,9.46346081 C3.60786852,9.24307513 3.60786852,8.88494841 3.8282542,8.66456274 L7.6574553,5.13839194 Z" id="icon-color" fill="#252B39"></path>
    </g>
</svg>