<?xml version="1.0" encoding="UTF-8"?>
<svg width="16px" height="16px" viewBox="0 0 16 16" version="1.1" xmlns="http://www.w3.org/2000/svg" xmlns:xlink="http://www.w3.org/1999/xlink">
    <!-- Generator: Sketch 55.2 (78181) - https://sketchapp.com -->
    <title>icon-attachment-16_icon-01</title>
    <desc>Created with Sketch.</desc>
    <defs>
        <path d="M14.7895647,2.16631983 C13.1756511,0.611226722 10.5585036,0.611226722 8.94463549,2.16631983 L0.908193822,9.90982211 C-0.302731274,11.0766139 -0.302731274,12.9671899 0.908193822,14.1340256 C1.90627861,15.0957343 3.41169887,15.2510284 4.58854035,14.6268223 C4.7114783,14.6208511 4.83236576,14.5760674 4.92641466,14.486456 L12.9628108,6.74295373 C13.7697448,5.96542912 13.7697448,4.70503052 12.9628108,3.92750592 C12.1558767,3.14998132 10.8478042,3.14998132 10.0408701,3.92750592 L3.46542157,10.2632623 C3.26392728,10.457413 3.26392728,10.7730066 3.46542157,10.9671133 C3.66691586,11.161264 3.9944466,11.161264 4.19589533,10.9671133 L10.7713439,4.6313569 C11.1753349,4.24208968 11.8293484,4.24208968 12.232337,4.6313569 C12.636328,5.02062411 12.636328,5.65080146 12.232337,6.03910275 L4.56065376,13.4311405 C3.75371971,14.2086651 2.44564721,14.2086651 1.63871315,13.4311405 C0.831779094,12.6536159 0.831779094,11.3932173 1.63871315,10.6156927 L9.67510925,2.87017081 C10.8860343,1.70337899 12.8481203,1.70337899 14.059091,2.87017081 C15.2700161,4.03696263 15.2700161,5.92753857 14.059091,7.0943743 L6.75316864,14.1340256 C6.55167435,14.3281762 6.55167435,14.6437698 6.75316864,14.8378766 C6.95466293,15.0320272 7.28219368,15.0320272 7.4836424,14.8378766 L14.7895647,7.79822528 C16.4034784,6.24317607 16.4034784,3.72141295 14.7895647,2.16631983 Z" id="path-1"></path>
    </defs>
    <g id="icon-attachment-16_icon-01" stroke="none" stroke-width="1" fill="none" fill-rule="evenodd">
        <mask id="mask-2" fill="white">
            <use xlink:href="#path-1"></use>
        </mask>
        <use id="icon-color" fill="#252B39" xlink:href="#path-1"></use>
    </g>
</svg>