<?xml version="1.0" encoding="UTF-8"?>
<svg width="16px" height="16px" viewBox="0 0 16 16" version="1.1" xmlns="http://www.w3.org/2000/svg" xmlns:xlink="http://www.w3.org/1999/xlink">
    <!-- Generator: Sketch 55.2 (78181) - https://sketchapp.com -->
    <title>icon-status-warning-filled-16_icon-support-01</title>
    <desc>Created with Sketch.</desc>
    <g id="icon-status-warning-filled-16_icon-support-01" stroke="none" stroke-width="1" fill="none" fill-rule="evenodd">
        <path d="M8,15 C4.13400675,15 1,11.8659932 1,8 C1,4.13400675 4.13400675,1 8,1 C11.8659932,1 15,4.13400675 15,8 C15,11.8659932 11.8659932,15 8,15 Z M7.44,4 L7.44,9.5 L8.565,9.5 L8.565,4 L7.44,4 Z M8,12.5 C8.41421356,12.5 8.75,12.1642136 8.75,11.75 C8.75,11.3357864 8.41421356,11 8,11 C7.58578644,11 7.25,11.3357864 7.25,11.75 C7.25,12.1642136 7.58578644,12.5 8,12.5 Z" id="icon-color" fill="#FF6200"></path>
    </g>
</svg>