<?xml version="1.0" encoding="UTF-8"?>
<svg width="16px" height="16px" viewBox="0 0 16 16" version="1.1" xmlns="http://www.w3.org/2000/svg" xmlns:xlink="http://www.w3.org/1999/xlink">
    <!-- Generator: Sketch 55.2 (78181) - https://sketchapp.com -->
    <title>icon-file-download file_icon-01</title>
    <desc>Created with Sketch.</desc>
    <g id="icon-file-download-file_icon-01" stroke="none" stroke-width="1" fill="none" fill-rule="evenodd">
        <path d="M1.08843537,9.54054054 L1.08843537,12.8378378 C1.08843537,13.4324324 1.57823129,13.9189189 2.17687075,13.9189189 L13.8231293,13.9189189 C14.4217687,13.9189189 14.9115646,13.4324324 14.9115646,12.8378378 L14.9115646,9.54054054 C14.9115646,9.24324324 15.1564626,9 15.4557823,9 C15.755102,9 16,9.24324324 16,9.54054054 L16,12.8378378 C16,14.027027 15.0204082,15 13.8231293,15 L2.17687075,15 C0.979591837,15 -8.48210391e-13,14.027027 -8.48210391e-13,12.8378378 L-8.48210391e-13,9.54054054 C-8.48210391e-13,9.24324324 0.244897959,9 0.544217687,9 C0.843537415,9 1.08843537,9.24324324 1.08843537,9.54054054 Z M8.34319559,10.862259 C8.14379366,11.0243163 7.85792414,11.0238063 7.65910171,10.8610385 L7.62694215,10.8347107 L3.85283747,7.33608815 C3.74264463,7.22589532 3.66,7.08815427 3.66,6.92286501 C3.66,6.78512397 3.71509642,6.64738292 3.82528926,6.53719008 C4.04567493,6.31680441 4.37625344,6.31680441 4.59663912,6.50964187 L7.46165289,9.18181818 L7.46165289,1.55096419 C7.46165289,1.24793388 7.70958678,1 8.01261708,1 C8.31564738,1 8.56358127,1.24793388 8.56358127,1.55096419 L8.56358127,9.18181818 L11.428595,6.50964187 C11.6489807,6.31680441 11.9795592,6.31680441 12.1999449,6.53719008 C12.3927824,6.75757576 12.3927824,7.11570248 12.1723967,7.33608815 L8.34319559,10.862259 Z" id="icon-color" fill="#252B39"></path>
    </g>
</svg>