<?xml version="1.0" encoding="UTF-8"?>
<svg width="16px" height="16px" viewBox="0 0 16 16" version="1.1" xmlns="http://www.w3.org/2000/svg" xmlns:xlink="http://www.w3.org/1999/xlink">
    <!-- Generator: Sketch 55.2 (78181) - https://sketchapp.com -->
    <title>icon-navigation-maximize-16_icon-accent-02</title>
    <desc>Created with Sketch.</desc>
    <g id="icon-navigation-maximize-16_icon-accent-02" stroke="none" stroke-width="1" fill="none" fill-rule="evenodd">
        <path d="M14.9073421,5.4798743 C14.5788424,5.4798743 14.3125409,5.21444981 14.3125409,4.88703212 L14.3125409,2.53542481 L9.95066542,6.86317271 C9.81102366,7.0487485 9.57561813,7.13610025 9.34821551,7.08672334 C9.12081289,7.03734643 8.94319447,6.86031301 8.8936544,6.63365936 C8.84411433,6.40700571 8.93175473,6.1723755 9.11794374,6.03319366 L13.4599925,1.68568436 L11.1006144,1.68568436 C10.7721148,1.68568436 10.5058132,1.42025987 10.5058132,1.09284218 C10.5058132,0.765424484 10.7721148,0.5 11.1006144,0.5 L14.9073421,0.5 C15.2358417,0.5 15.5021432,0.765424484 15.5021432,1.09284218 L15.5021432,4.88703212 C15.5021432,5.21444981 15.2358417,5.4798743 14.9073421,5.4798743 Z M0.500330945,11.15387 C0.494956015,10.9932432 0.555241451,10.8373243 0.667376188,10.7218333 C0.779510925,10.6063424 0.933884996,10.5411771 1.09513214,10.5412664 C1.42363177,10.5412664 1.68993334,10.8066909 1.68993334,11.1341086 L1.72958675,13.4857159 L6.01215536,9.07892236 C6.2421051,8.84427301 6.61936566,8.83984927 6.85479039,9.06904165 C7.09021513,9.29823404 7.09465349,9.67425206 6.86470375,9.90890141 L2.56230843,14.2959335 L4.9216865,14.2564107 C5.25018613,14.2509538 5.52092606,14.5119545 5.52640105,14.8393722 C5.53187605,15.1667899 5.27001284,15.4366381 4.94151321,15.4420951 L1.15461226,15.501394 C1.00087215,15.5024399 0.852315717,15.4460334 0.738251424,15.343288 C0.626182394,15.2338313 0.562045762,15.0846721 0.559811065,14.9282985 L0.500330945,11.15387 Z" id="Combined-Shape" fill="#3887FF"></path>
    </g>
</svg>