<?xml version="1.0" encoding="UTF-8"?>
<svg width="16px" height="16px" viewBox="0 0 16 16" version="1.1" xmlns="http://www.w3.org/2000/svg" xmlns:xlink="http://www.w3.org/1999/xlink">
    <!-- Generator: Sketch 55.2 (78181) - https://sketchapp.com -->
    <title>icon-image-status-16_icon-01</title>
    <desc>Created with Sketch.</desc>
    <g id="icon-image-status-16_icon-01" stroke="none" stroke-width="1" fill="none" fill-rule="evenodd">
        <path d="M13.3452381,6.25433023 C13.5833345,6.21464749 13.8015863,6.15512428 14,6.0757588 C14,6.43290345 13.9107152,6.79004273 13.7321429,7.14718737 C13.1964259,8.11941446 12.4375049,8.90809705 11.4553571,9.5132588 C10.4732094,10.1184206 9.43651339,10.163063 8.3452381,9.64718737 C6.89681815,8.95273946 5.73611548,8.7146466 4.86309524,8.93290166 L4.83333333,8.93290166 L4.77380952,8.96266356 C4.47618899,9.06187041 4.21825506,9.07179095 4,8.99242547 L4,3.12933023 C4,2.8912338 4.09424509,2.67298202 4.2827381,2.47456833 C4.4712311,2.27615464 4.70436369,2.14718767 4.98214286,2.08766356 C6.94643839,1.73051892 8.41467768,2.46463856 9.38690476,4.29004452 C10.2400836,5.89719541 11.5595149,6.55195077 13.3452381,6.25433023 Z M2.5,2 C2.77614237,2 3,2.22385763 3,2.5 L3,13.5 C3,13.7761424 2.77614237,14 2.5,14 C2.22385763,14 2,13.7761424 2,13.5 L2,2.5 C2,2.22385763 2.22385763,2 2.5,2 Z" id="icon-color" fill="#252B39"></path>
    </g>
</svg>