<?xml version="1.0" encoding="UTF-8"?>
<svg width="16px" height="16px" viewBox="0 0 16 16" version="1.1" xmlns="http://www.w3.org/2000/svg" xmlns:xlink="http://www.w3.org/1999/xlink">
    <!-- Generator: Sketch 55.2 (78181) - https://sketchapp.com -->
    <title>icon-status-info-16_icon-03</title>
    <desc>Created with Sketch.</desc>
    <g id="icon-status-info-16_icon-03" stroke="none" stroke-width="1" fill="none" fill-rule="evenodd">
        <path d="M8,16 C3.581722,16 0,12.418278 0,8 C0,3.581722 3.581722,0 8,0 C12.418278,0 16,3.581722 16,8 C16,12.418278 12.418278,16 8,16 Z M8,15 C11.8659932,15 15,11.8659932 15,8 C15,4.13400675 11.8659932,1 8,1 C4.13400675,1 1,4.13400675 1,8 C1,11.8659932 4.13400675,15 8,15 Z M8,3.55555556 C9.46644302,3.55555556 10.6666667,4.75578133 10.6666667,6.22222222 C10.6666667,7.08755022 10.2675748,7.76786667 9.78888889,8.27222222 C9.37824924,8.70489778 8.92191129,9.03115556 8.53333333,9.32777778 L8.53333333,9.77777778 C8.53605349,9.97011693 8.43499984,10.1490212 8.26886781,10.2459846 C8.10273578,10.342948 7.89726422,10.342948 7.73113219,10.2459846 C7.56500016,10.1490212 7.46394651,9.97011693 7.46666667,9.77777778 L7.46666667,9.06666667 C7.46657315,8.90460658 7.54016338,8.75129362 7.66666667,8.65 C8.13787147,8.27304 8.64535253,7.92426667 9.01111111,7.53888889 C9.37686969,7.15350756 9.6,6.77568711 9.6,6.22222222 C9.6,5.33225067 8.88997298,4.62222222 8,4.62222222 C7.11002702,4.62222222 6.4,5.33225067 6.4,6.22222222 C6.40272015,6.41456138 6.30166651,6.59346562 6.13553448,6.69042901 C5.96940245,6.7873924 5.76393088,6.7873924 5.59779885,6.69042901 C5.43166682,6.59346562 5.33061318,6.41456138 5.33333333,6.22222222 C5.33333333,4.75578133 6.53355698,3.55555556 8,3.55555556 Z M8,11.0222222 C8.392736,11.0222222 8.71111111,11.3405867 8.71111111,11.7333333 C8.71111111,12.1260622 8.392736,12.4444444 8,12.4444444 C7.607264,12.4444444 7.28888889,12.1260622 7.28888889,11.7333333 C7.28888889,11.3405867 7.607264,11.0222222 8,11.0222222 Z" id="icon-color" fill="#7C8088"></path>
    </g>
</svg>