<?xml version="1.0" encoding="UTF-8"?>
<svg width="16px" height="16px" viewBox="0 0 16 16" version="1.1" xmlns="http://www.w3.org/2000/svg" xmlns:xlink="http://www.w3.org/1999/xlink">
    <!-- Generator: Sketch 55.2 (78181) - https://sketchapp.com -->
    <title>icon-image-view-16_icon-01</title>
    <desc>Created with Sketch.</desc>
    <g id="icon-image-view-16_icon-01" stroke="none" stroke-width="1" fill="none" fill-rule="evenodd">
        <path d="M15.4697873,7.83 C14.2667193,4.72169147 11.3303933,2.626562 7.99978728,2.5 C4.66918123,2.626562 1.73285531,4.72169147 0.529787282,7.83 C0.490070906,7.9398538 0.490070906,8.0601462 0.529787282,8.17 C1.73285531,11.2783085 4.66918123,13.373438 7.99978728,13.5 C11.3303933,13.373438 14.2667193,11.2783085 15.4697873,8.17 C15.5095037,8.0601462 15.5095037,7.9398538 15.4697873,7.83 Z M7.99978728,12.5 C5.34978728,12.5 2.54978728,10.535 1.53478728,8 C2.54978728,5.465 5.34978728,3.5 7.99978728,3.5 C10.6497873,3.5 13.4497873,5.465 14.4647873,8 C13.4497873,10.535 10.6497873,12.5 7.99978728,12.5 Z M7.99978728,5 C6.34293303,5 4.99978728,6.34314575 4.99978728,8 C4.99978728,9.65685425 6.34293303,11 7.99978728,11 C9.65664153,11 10.9997873,9.65685425 10.9997873,8 C10.9997873,6.34314575 9.65664153,5 7.99978728,5 Z M7.99978728,10 C6.89521778,10 5.99978728,9.1045695 5.99978728,8 C5.99978728,6.8954305 6.89521778,6 7.99978728,6 C9.10435678,6 9.99978728,6.8954305 9.99978728,8 C9.99978728,8.53043298 9.7890736,9.03914081 9.41400084,9.41421356 C9.03892809,9.78928632 8.53022026,10 7.99978728,10 Z" id="icon-color" fill="#252B39"></path>
    </g>
</svg>