<?xml version="1.0" encoding="UTF-8"?>
<svg width="16px" height="16px" viewBox="0 0 16 16" version="1.1" xmlns="http://www.w3.org/2000/svg" xmlns:xlink="http://www.w3.org/1999/xlink">
    <!-- Generator: Sketch 55.2 (78181) - https://sketchapp.com -->
    <title>icon-navigation-arrow-right-16_icon_accent-02</title>
    <desc>Created with Sketch.</desc>
    <g id="icon-navigation-arrow-right-16_icon_accent-02" stroke="none" stroke-width="1" fill="none" fill-rule="evenodd">
        <path d="M13.5088468,6.87265026 L13.4493667,3.09822173 C13.447132,2.94184818 13.3829953,2.79268893 13.2709263,2.6832322 C13.156862,2.58048685 13.0083056,2.52408031 12.8545655,2.52512627 L9.06766451,2.58442517 C8.73916488,2.58988214 8.47730168,2.85973036 8.48277667,3.18714806 C8.48825166,3.51456575 8.75899159,3.77556649 9.08749122,3.77010953 L11.4468693,3.73058672 L2.19472651,13.0673663 C1.96477677,13.3020157 1.96921513,13.6780337 2.20463986,13.9072261 C2.4400646,14.1364184 2.81732515,14.1319947 3.04727489,13.8973454 L12.279591,4.54080436 L12.3192444,6.89241167 C12.3192444,7.21982936 12.585546,7.48525385 12.9140456,7.48525385 C13.0752927,7.48534316 13.2296668,7.42017784 13.3418015,7.30468691 C13.4539363,7.18919599 13.5142217,7.03327704 13.5088468,6.87265026 Z" id="icon-color" fill="#3887FF" transform="translate(7.767152, 8.300697) rotate(45.000000) translate(-7.767152, -8.300697) "></path>
    </g>
</svg>